# xmcd
#
# Track frame offsets:
#	150
#	14499
#	31112
#	46128
#	62194
#	74986
#	89324
#	102208
#	116549
#	130541
#	148829
#	163425
#
# Disc length: 2441 seconds
#
# Revision: 0
# Processed by: cddbd v1.5.2PL0 Copyright (c) Steve Scherf et al.
# Submitted via: EasyCDDAExtractor 16.0.1.1
#
DISCID=ac09870c
DTITLE=Pam Brooks and Lonesome Wind - Waiting for the Wind
DYEAR=2004
DGENRE=Country
TTITLE0=Lonesome Wind Blues
TTITLE1=Once More
TTITLE2=Waiting for the Wind
TTITLE3=Little Angels
TTITLE4=I Wish You Knew
TTITLE5=Don't Let Me Cross Over
TTITLE6=Are You Teasing Me
TTITLE7=Just Call On Me
TTITLE8=Roses in the Snow
TTITLE9=Unwed Fathers
TTITLE10=Hickory Wind
TTITLE11=Darkest Hour is Just Before Dawn
EXTD=
EXTT0=
EXTT1=
EXTT2=
EXTT3=
EXTT4=
EXTT5=
EXTT6=
EXTT7=
EXTT8=
EXTT9=
EXTT10=
EXTT11=
PLAYORDER=
